<svg width="159" height="159" viewBox="0 0 159 159" fill="none" xmlns="http://www.w3.org/2000/svg">
<path d="M65.2099 144.281C56.1892 142.363 48.0757 138.849 40.8696 133.74C33.6634 128.63 27.7496 122.516 23.1282 115.4C18.5068 108.284 15.3275 100.395 13.5904 91.7333C11.8532 83.0717 11.9434 74.2306 13.8608 65.2099C15.7782 56.1892 19.2919 48.0757 24.4018 40.8696C29.5117 33.6634 35.6248 27.7496 42.7412 23.1282C49.8576 18.5068 57.7465 15.3275 66.4081 13.5904C75.0696 11.8533 83.9108 11.9434 92.9315 13.8608C99.9959 15.3624 106.46 17.8156 112.325 21.2205C118.19 24.6253 123.392 28.7414 127.932 33.5685L116.432 41.1772C112.857 37.6909 108.888 34.7175 104.527 32.2569C100.165 29.7964 95.3761 28.0116 90.1593 26.9028C75.7044 23.8303 62.3161 26.295 49.9943 34.2969C37.6724 42.2988 29.9752 53.5272 26.9028 67.982C23.8303 82.4369 26.295 95.8252 34.2969 108.147C42.2988 120.469 53.5272 128.166 67.982 131.239C82.4369 134.311 95.8252 131.846 108.147 123.844C120.469 115.843 128.166 104.614 131.239 90.1593C131.654 88.203 131.962 86.2236 132.16 84.2211C132.358 82.2186 132.437 80.2474 132.395 78.3073L145.244 69.9631C145.7 73.6951 145.861 77.478 145.728 81.3118C145.595 85.1457 145.112 89.0189 144.281 92.9315C142.363 101.952 138.849 110.066 133.74 117.272C128.63 124.478 122.516 130.392 115.4 135.013C108.284 139.635 100.395 142.814 91.7333 144.551C83.0717 146.288 74.2306 146.198 65.2099 144.281ZM63.5653 107.127L41.742 73.5217L52.8119 66.3328L67.4463 88.8679L146.552 37.3558L153.741 48.4257L63.5653 107.127Z" fill="#EEEFFF"/>
</svg>
